<svg width="76" height="16" viewBox="0 0 76 16" fill="none" xmlns="http://www.w3.org/2000/svg">
<path d="M10.1172 2.48047H6.07422V15H4.43359V2.48047H0.400391V0.996094H10.1172V2.48047ZM18.1934 10.4004H11.1328C11.1589 11.5137 11.4583 12.373 12.0312 12.9785C12.6042 13.584 13.3919 13.8867 14.3945 13.8867C15.5208 13.8867 16.556 13.5156 17.5 12.7734V14.2773C16.6211 14.9154 15.459 15.2344 14.0137 15.2344C12.6009 15.2344 11.4909 14.7819 10.6836 13.877C9.8763 12.9655 9.47266 11.6862 9.47266 10.0391C9.47266 8.48307 9.91211 7.2168 10.791 6.24023C11.6764 5.25716 12.7734 4.76562 14.082 4.76562C15.3906 4.76562 16.403 5.1888 17.1191 6.03516C17.8353 6.88151 18.1934 8.05664 18.1934 9.56055V10.4004ZM16.5527 9.04297C16.5462 8.11849 16.3216 7.39909 15.8789 6.88477C15.4427 6.37044 14.834 6.11328 14.0527 6.11328C13.2975 6.11328 12.6562 6.38346 12.1289 6.92383C11.6016 7.46419 11.276 8.17057 11.1523 9.04297H16.5527ZM20.0195 14.6387V12.9199C20.8919 13.5645 21.8522 13.8867 22.9004 13.8867C24.3066 13.8867 25.0098 13.418 25.0098 12.4805C25.0098 12.2135 24.9479 11.9889 24.8242 11.8066C24.707 11.6178 24.5443 11.4518 24.3359 11.3086C24.1341 11.1654 23.8932 11.0384 23.6133 10.9277C23.3398 10.8105 23.0436 10.6901 22.7246 10.5664C22.2819 10.3906 21.8913 10.2148 21.5527 10.0391C21.2207 9.85677 20.9408 9.65495 20.7129 9.43359C20.4915 9.20573 20.3223 8.94857 20.2051 8.66211C20.0944 8.37565 20.0391 8.04036 20.0391 7.65625C20.0391 7.1875 20.1465 6.77409 20.3613 6.41602C20.5762 6.05143 20.8626 5.7487 21.2207 5.50781C21.5788 5.26042 21.9857 5.07487 22.4414 4.95117C22.9036 4.82747 23.3789 4.76562 23.8672 4.76562C24.7331 4.76562 25.5078 4.91536 26.1914 5.21484V6.83594C25.4557 6.35417 24.6094 6.11328 23.6523 6.11328C23.3529 6.11328 23.0827 6.14909 22.8418 6.2207C22.6009 6.28581 22.3926 6.38021 22.2168 6.50391C22.0475 6.6276 21.9141 6.77734 21.8164 6.95312C21.7253 7.1224 21.6797 7.3112 21.6797 7.51953C21.6797 7.77995 21.7253 7.99805 21.8164 8.17383C21.9141 8.34961 22.054 8.50586 22.2363 8.64258C22.4186 8.7793 22.64 8.90299 22.9004 9.01367C23.1608 9.12435 23.457 9.24479 23.7891 9.375C24.2318 9.54427 24.6289 9.72005 24.9805 9.90234C25.332 10.0781 25.6315 10.2799 25.8789 10.5078C26.1263 10.7292 26.3151 10.9863 26.4453 11.2793C26.582 11.5723 26.6504 11.9206 26.6504 12.3242C26.6504 12.819 26.5397 13.2487 26.3184 13.6133C26.1035 13.9779 25.8138 14.2806 25.4492 14.5215C25.0846 14.7624 24.6647 14.9414 24.1895 15.0586C23.7142 15.1758 23.2161 15.2344 22.6953 15.2344C21.6667 15.2344 20.7747 15.0358 20.0195 14.6387ZM33.7598 14.9023C33.3822 15.1107 32.8841 15.2148 32.2656 15.2148C30.5143 15.2148 29.6387 14.2383 29.6387 12.2852V6.36719H27.9199V5H29.6387V2.55859L31.2402 2.04102V5H33.7598V6.36719H31.2402V12.002C31.2402 12.6725 31.3542 13.151 31.582 13.4375C31.8099 13.724 32.1875 13.8672 32.7148 13.8672C33.1185 13.8672 33.4668 13.7565 33.7598 13.5352V14.9023ZM46.0254 14.9023C45.6478 15.1107 45.1497 15.2148 44.5312 15.2148C42.7799 15.2148 41.9043 14.2383 41.9043 12.2852V6.36719H40.1855V5H41.9043V2.55859L43.5059 2.04102V5H46.0254V6.36719H43.5059V12.002C43.5059 12.6725 43.6198 13.151 43.8477 13.4375C44.0755 13.724 44.4531 13.8672 44.9805 13.8672C45.3841 13.8672 45.7324 13.7565 46.0254 13.5352V14.9023ZM55.3223 15H53.7207V13.4375H53.6816C52.985 14.6354 51.9596 15.2344 50.6055 15.2344C49.6094 15.2344 48.8281 14.9707 48.2617 14.4434C47.7018 13.916 47.4219 13.2161 47.4219 12.3438C47.4219 10.4753 48.5221 9.38802 50.7227 9.08203L53.7207 8.66211C53.7207 6.96289 53.0339 6.11328 51.6602 6.11328C50.4557 6.11328 49.3685 6.52344 48.3984 7.34375V5.70312C49.3815 5.07812 50.5143 4.76562 51.7969 4.76562C54.1471 4.76562 55.3223 6.00911 55.3223 8.49609V15ZM53.7207 9.94141L51.3086 10.2734C50.5664 10.3776 50.0065 10.5632 49.6289 10.8301C49.2513 11.0905 49.0625 11.556 49.0625 12.2266C49.0625 12.7148 49.235 13.1152 49.5801 13.4277C49.9316 13.7337 50.3971 13.8867 50.9766 13.8867C51.7708 13.8867 52.4251 13.61 52.9395 13.0566C53.4603 12.4967 53.7207 11.7904 53.7207 10.9375V9.94141ZM57.7344 14.6387V12.9199C58.6068 13.5645 59.5671 13.8867 60.6152 13.8867C62.0215 13.8867 62.7246 13.418 62.7246 12.4805C62.7246 12.2135 62.6628 11.9889 62.5391 11.8066C62.4219 11.6178 62.2591 11.4518 62.0508 11.3086C61.849 11.1654 61.6081 11.0384 61.3281 10.9277C61.0547 10.8105 60.7585 10.6901 60.4395 10.5664C59.9967 10.3906 59.6061 10.2148 59.2676 10.0391C58.9355 9.85677 58.6556 9.65495 58.4277 9.43359C58.2064 9.20573 58.0371 8.94857 57.9199 8.66211C57.8092 8.37565 57.7539 8.04036 57.7539 7.65625C57.7539 7.1875 57.8613 6.77409 58.0762 6.41602C58.291 6.05143 58.5775 5.7487 58.9355 5.50781C59.2936 5.26042 59.7005 5.07487 60.1562 4.95117C60.6185 4.82747 61.0938 4.76562 61.582 4.76562C62.4479 4.76562 63.2227 4.91536 63.9062 5.21484V6.83594C63.1706 6.35417 62.3242 6.11328 61.3672 6.11328C61.0677 6.11328 60.7975 6.14909 60.5566 6.2207C60.3158 6.28581 60.1074 6.38021 59.9316 6.50391C59.7624 6.6276 59.6289 6.77734 59.5312 6.95312C59.4401 7.1224 59.3945 7.3112 59.3945 7.51953C59.3945 7.77995 59.4401 7.99805 59.5312 8.17383C59.6289 8.34961 59.7689 8.50586 59.9512 8.64258C60.1335 8.7793 60.3548 8.90299 60.6152 9.01367C60.8757 9.12435 61.1719 9.24479 61.5039 9.375C61.9466 9.54427 62.3438 9.72005 62.6953 9.90234C63.0469 10.0781 63.3464 10.2799 63.5938 10.5078C63.8411 10.7292 64.0299 10.9863 64.1602 11.2793C64.2969 11.5723 64.3652 11.9206 64.3652 12.3242C64.3652 12.819 64.2546 13.2487 64.0332 13.6133C63.8184 13.9779 63.5286 14.2806 63.1641 14.5215C62.7995 14.7624 62.3796 14.9414 61.9043 15.0586C61.429 15.1758 60.931 15.2344 60.4102 15.2344C59.3815 15.2344 58.4896 15.0358 57.7344 14.6387ZM75.1367 15H72.8906L68.4766 10.1953H68.4375V15H66.8359V0.195312H68.4375V9.58008H68.4766L72.6758 5H74.7754L70.1367 9.82422L75.1367 15Z" fill="#212529"/>
</svg>
